HIERARCHY
ROOT root
{
	OFFSET	0	13.1	24.9
	CHANNELS 6  Xposition Yposition Zposition Xrotation Yrotation Zrotation
	JOINT spine_1
	{
		OFFSET	0	9.99999	0
		CHANNELS 3  Xrotation Yrotation Zrotation
		JOINT spine_2
		{
			OFFSET	0	112	-10
			CHANNELS 3  Xrotation Yrotation Zrotation
			JOINT spine_3
			{
				OFFSET	0	206.5	19.3
				CHANNELS 3  Xrotation Yrotation Zrotation
				JOINT spine_4
				{
					OFFSET	0	110.4	14.6
					CHANNELS 3  Xrotation Yrotation Zrotation
					JOINT neck_1
					{
						OFFSET	0	71.8	-50.3
						CHANNELS 3  Xrotation Yrotation Zrotation
						JOINT neck_2
						{
							OFFSET	0	86.2	-25.8
							CHANNELS 3  Xrotation Yrotation Zrotation
							JOINT head_ee
							{
								OFFSET	0	179.8	-8.7
								CHANNELS 3  Xrotation Yrotation Zrotation
								End Site
								{
									OFFSET	1	0	0
								}
							}
						}
					}
					JOINT left_clavicle
					{
						OFFSET	-43.2	22.4	-70.8
						CHANNELS 3  Xrotation Yrotation Zrotation
						JOINT left_shoulder
						{
							OFFSET	-93.9	-5.79999	48.7
							CHANNELS 3  Xrotation Yrotation Zrotation
							JOINT left_elbow
							{
								OFFSET	-291.4	-30.8	15.2
								CHANNELS 3  Xrotation Yrotation Zrotation
								JOINT left_lowarm_twist
								{
									OFFSET	-110.7	-3.89999	13.6
									CHANNELS 3  Xrotation Yrotation Zrotation
									JOINT left_hand
									{
										OFFSET	-110.7	-3.89999	13.6
										CHANNELS 3  Xrotation Yrotation Zrotation
										JOINT left_ee
										{
											OFFSET	-80.8	-5.10001	12.1
											CHANNELS 3  Xrotation Yrotation Zrotation
											End Site
											{
												OFFSET	1	0	0
											}
										}
									}
								}
							}
						}
					}
					JOINT right_clavicle
					{
						OFFSET	43.2	22.4	-70.8
						CHANNELS 3  Xrotation Yrotation Zrotation
						JOINT right_shoulder
						{
							OFFSET	93.9	-5.79999	48.7
							CHANNELS 3  Xrotation Yrotation Zrotation
							JOINT right_elbow
							{
								OFFSET	291.4	-30.8	15.2
								CHANNELS 3  Xrotation Yrotation Zrotation
								JOINT right_lowarm_twist
								{
									OFFSET	110.7	-3.89999	13.6
									CHANNELS 3  Xrotation Yrotation Zrotation
									JOINT right_hand
									{
										OFFSET	110.7	-3.89999	13.6
										CHANNELS 3  Xrotation Yrotation Zrotation
										JOINT right_ee
										{
											OFFSET	80.8	-5.10001	12.1
											CHANNELS 3  Xrotation Yrotation Zrotation
											End Site
											{
												OFFSET	1	0	0
											}
										}
									}
								}
							}
						}
					}
				}
			}
		}
	}
	JOINT left_hip
	{
		OFFSET	-82.8	-127.5	0.300001
		CHANNELS 3  Xrotation Yrotation Zrotation
		JOINT left_knee
		{
			OFFSET	-28.2	-396.7	2.2
			CHANNELS 3  Xrotation Yrotation Zrotation
			JOINT left_ankle
			{
				OFFSET	-11.7	-411.3	35.4
				CHANNELS 3  Xrotation Yrotation Zrotation
				JOINT left_toes
				{
					OFFSET	0	-60	-88.6
					CHANNELS 3  Xrotation Yrotation Zrotation
					JOINT left_foot_ee
					{
						OFFSET	-22.5	-16.5	-42.2
						CHANNELS 3  Xrotation Yrotation Zrotation
						End Site
						{
							OFFSET	1	0	0
						}
					}
				}
			}
		}
	}
	JOINT right_hip
	{
		OFFSET	82.8	-127.5	0.300001
		CHANNELS 3  Xrotation Yrotation Zrotation
		JOINT right_knee
		{
			OFFSET	28.2	-396.7	2.2
			CHANNELS 3  Xrotation Yrotation Zrotation
			JOINT right_ankle
			{
				OFFSET	11.7	-411.3	35.4
				CHANNELS 3  Xrotation Yrotation Zrotation
				JOINT right_toes
				{
					OFFSET	0	-60	-88.6
					CHANNELS 3  Xrotation Yrotation Zrotation
					JOINT right_foot_ee
					{
						OFFSET	22.5	-16.5	-42.2
						CHANNELS 3  Xrotation Yrotation Zrotation
						End Site
						{
							OFFSET	1	0	0
						}
					}
				}
			}
		}
	}
}
MOTION
Frames: 16
Frame Time: 0.02
1002.07 729.46 -721.661 165.883 -70.7511 160.327 -1.58932 0.508288 2.72451 -1.58525 0.333958 2.7513 -1.56511 -0.32717 2.75212 -1.57566 0.111409 2.76924 -8.8734 3.54127 0.421862 -8.8809 6.34225 1.23343 -0.0 0.0 -0.0 0.536881 17.1946 2.84451 28.1249 -17.7796 67.9367 0.970502 -25.6758 0.221173 25.1095 0.191444 -3.17625 -1.06081 13.0738 -1.29118 -0.0 0.0 -0.0 7.28198 23.9843 -13.0459 -14.2803 17.2125 -68.2254 0.855345 22.9628 -0.173736 17.0262 -0.282522 2.14861 3.45913 15.5431 -16.7881 0.0 0.0 0.0 -8.62167 29.4343 14.7306 -2.94177 0.109896 0.438043 41.817 20.0829 -5.19508 -30.4967 0.0 0.0 -0.0 0.0 -0.0 16.3941 18.9007 6.20414 -59.2794 2.12268 -8.44558 36.4745 -2.46815 4.54526 -7.35724 0.0 0.0 0.0 0.0 0.0 
1016.08 729.86 -719.788 166.21 -70.3682 160.994 -1.40261 0.295666 2.75288 -1.39841 0.119962 2.7661 -1.38904 -0.530468 2.71745 -1.39933 -0.0948125 2.76708 -8.91508 3.84639 0.045377 -8.92508 7.17638 0.936568 -0.0 0.0 -0.0 0.294343 16.5564 2.40242 29.0705 -17.7188 67.3144 1.00651 -26.5 0.237006 26.2253 0.167515 -3.31676 -0.697408 11.5899 0.355867 -0.0 0.0 -0.0 7.1852 23.7116 -12.8594 -15.736 17.5429 -69.0213 0.88389 23.6461 -0.185029 16.7018 -0.283144 2.10718 3.51118 16.3973 -16.7249 0.0 0.0 0.0 -10.0311 27.4747 14.4386 -2.91479 0.10899 0.434001 41.9432 20.2257 -5.20981 -31.4319 0.0 0.0 -0.0 0.0 -0.0 20.1287 17.9636 4.49097 -58.8225 2.07419 -8.39444 36.1946 -2.56628 4.51856 -7.76283 0.0 0.0 0.0 0.0 0.0 
1031.69 729.617 -718.113 167.39 -69.099 162.423 -1.21242 0.365982 2.64977 -1.20854 0.19669 2.66767 -1.19611 -0.423838 2.64114 -1.20585 -0.00155608 2.6749 -9.42415 3.91656 -0.077326 -9.43765 7.408 0.863992 -0.0 0.0 -0.0 0.03938 15.9153 1.93199 29.5951 -18.3109 66.1615 1.07105 -27.9483 0.266538 27.0209 0.148781 -3.41668 -0.495478 10.4078 1.13839 -0.0 0.0 -0.0 7.20678 22.8666 -12.985 -17.2792 17.3645 -68.7933 0.786591 21.2885 -0.147837 16.4892 -0.283425 2.08003 3.59744 16.7636 -17.1402 0.0 0.0 0.0 -11.0755 26.9242 14.3174 -3.20421 0.118603 0.477379 42.0892 19.996 -5.21699 -31.9376 0.0 0.0 -0.0 0.0 -0.0 23.1609 16.0813 3.60946 -57.9274 1.98039 -8.29315 35.6546 -2.56152 4.46736 -8.11314 0.0 0.0 0.0 0.0 0.0 
1048.02 725.697 -717.268 167.032 -67.842 162.469 -1.14587 0.337462 2.56997 -1.14221 0.1733 2.58622 -1.13141 -0.424927 2.55697 -1.14053 -0.0159098 2.59196 -9.44818 4.35019 0.42765 -9.46367 7.87782 1.4643 -0.0 0.0 -0.0 -0.183911 15.9378 1.58245 30.2123 -18.5704 65.6289 1.21846 -31.1135 0.33922 27.6681 0.13252 -3.49775 -0.229713 8.72297 2.13963 -0.0 0.0 -0.0 6.84587 22.6309 -12.2161 -18.705 17.3061 -69.2913 0.711633 19.4187 -0.121763 16.2827 -0.283601 2.05366 3.59333 16.7989 -17.0938 0.0 0.0 0.0 -12.0103 26.0422 14.1427 -3.33841 0.122985 0.497507 42.153 19.9299 -5.22097 -32.364 0.0 0.0 -0.0 0.0 -0.0 25.6982 15.5519 2.91509 -56.5031 1.83445 -8.12904 35.4191 -2.41607 4.44543 -8.31998 0.0 0.0 0.0 0.0 0.0 
1065.17 723.775 -716.374 165.74 -66.8535 161.128 -1.0759 0.315813 2.56357 -1.07225 0.152102 2.57845 -1.06255 -0.440736 2.54508 -1.07158 -0.0333964 2.58272 -10.0334 4.41182 0.137203 -10.0546 8.21315 1.23556 -0.0 0.0 -0.0 -0.46602 15.0326 1.02281 30.9154 -19.0468 65.0995 1.21281 -30.9958 0.336306 28.0099 0.123565 -3.54048 -0.204587 8.98538 2.41053 -0.0 0.0 -0.0 6.69046 22.4479 -11.8928 -20.3254 16.9711 -69.202 0.728329 19.8391 -0.127371 16.191 -0.283649 2.04194 3.64156 17.0909 -17.281 0.0 0.0 0.0 -14.0767 24.9029 14.7631 -3.73903 0.135788 0.557658 42.2483 19.6755 -5.22311 -32.641 0.0 0.0 -0.0 0.0 -0.0 28.8145 14.9323 2.17693 -53.4765 1.53824 -7.76872 34.9151 -2.47794 4.39658 -8.45852 0.0 0.0 0.0 0.0 0.0 
1076.32 726.899 -715.644 168.452 -65.4039 164.247 -1.10188 0.49095 2.42957 -1.09865 0.335403 2.45587 -1.0814 -0.234904 2.4675 -1.08986 0.157617 2.47364 -10.2695 4.86968 0.975025 -10.2923 8.52209 2.18293 -0.0 0.0 -0.0 -0.735812 15.4478 0.646369 31.4558 -17.9035 64.7846 1.47094 -36.0771 0.479057 28.3074 0.11556 -3.57765 -0.0298443 5.15087 1.95803 -0.0 0.0 -0.0 6.63002 22.1816 -11.7847 -20.7531 17.3244 -69.3465 0.681182 18.6464 -0.111832 16.4705 -0.283445 2.07763 3.53586 16.352 -16.9193 0.0 0.0 0.0 -15.3598 24.8313 15.4665 -1.40117 0.0551523 0.207951 41.7245 19.3806 -5.17004 -33.8639 0.0 0.0 -0.0 0.0 -0.0 29.9738 12.1164 0.853945 -46.782 0.953599 -6.92027 36.4673 -1.97868 4.54672 -8.9241 0.0 0.0 0.0 0.0 0.0 
1093.6 721.917 -713.361 167.447 -65.014 163.162 -1.17891 0.362737 2.31225 -1.17596 0.214908 2.33063 -1.16469 -0.327029 2.31757 -1.17219 0.0429872 2.34012 -10.6519 4.78752 1.73976 -10.6681 7.87757 2.92924 -0.0 0.0 -0.0 -0.996988 15.5812 0.249551 32.3521 -18.4931 64.9207 1.49665 -36.5508 0.494282 28.5645 0.108487 -3.60973 -0.0390004 6.8719 2.61051 -0.0 0.0 -0.0 6.43163 21.6434 -11.3996 -21.4686 16.6668 -69.5436 0.648508 17.8098 -0.101611 16.4128 -0.283502 2.07027 3.54909 16.6668 -16.853 0.0 0.0 0.0 -16.6885 23.5062 15.7158 -2.59278 0.0980374 0.385796 41.5441 18.3165 -5.13031 -34.4689 0.0 0.0 -0.0 0.0 -0.0 28.7688 12.1214 -0.143956 -34.8169 0.170363 -5.25924 33.8079 -2.09521 4.2897 -8.78178 0.0 0.0 0.0 0.0 0.0 
1104.15 720.967 -711.567 167.338 -64.4558 163.192 -1.31504 0.421757 2.19311 -1.31241 0.281384 2.21548 -1.29905 -0.240988 2.22024 -1.30591 0.112592 2.23043 -10.7881 5.23198 2.55389 -10.7978 8.18571 3.84211 -0.0 0.0 -0.0 -0.957543 16.0979 0.384253 33.1197 -17.8772 64.7694 1.62155 -38.7709 0.570609 28.7291 0.103882 -3.63025 0.0368645 6.04344 2.76446 -0.0 0.0 -0.0 6.52734 21.7571 -11.5983 -21.6357 16.7372 -69.6351 0.599709 16.5457 -0.0871987 16.4938 -0.28342 2.08061 3.48798 16.2801 -16.6223 0.0 0.0 0.0 -17.1599 22.2051 15.5452 -2.43492 0.092569 0.362185 40.5963 18.1329 -5.04198 -35.5272 0.0 0.0 -0.0 0.0 -0.0 26.7428 10.8436 -0.196746 -25.5673 -0.18817 -3.88659 32.0873 -2.05217 4.11632 -8.73383 0.0 0.0 0.0 0.0 0.0 
1116.81 720.075 -708.233 167.053 -64.6845 162.293 -1.43223 0.416987 2.28904 -1.42936 0.270524 2.31092 -1.41569 -0.278449 2.30998 -1.42312 0.0897614 2.32496 -11.4369 5.54705 3.52887 -11.4346 8.19564 4.90956 -0.0 0.0 -0.0 -1.12835 15.778 0.0692343 33.3324 -18.2027 64.5301 1.73407 -40.6593 0.642514 28.8023 0.101817 -3.63937 0.0837198 5.28287 2.75825 -0.0 0.0 -0.0 6.77821 21.919 -12.1318 -21.803 16.6507 -69.8371 0.546264 15.142 -0.0726062 16.705 -0.283139 2.10759 3.44079 15.8807 -16.4932 0.0 0.0 0.0 -18.3188 20.7698 16.1832 -1.87256 0.0725598 0.2782 40.6535 17.7381 -5.03915 -36.2702 0.0 0.0 -0.0 0.0 -0.0 26.8991 10.1299 -0.310145 -17.238 -0.318293 -2.61623 31.7582 -1.91015 4.08314 -8.64375 0.0 0.0 0.0 0.0 0.0 
1128.98 722.533 -705.625 166.587 -65.1853 161.75 -1.53764 0.501722 2.45601 -1.53435 0.344472 2.48294 -1.51606 -0.251199 2.4941 -1.52471 0.145722 2.50247 -11.6473 6.15926 4.61172 -11.6258 8.67232 6.13175 -0.0 0.0 -0.0 -1.11306 15.8643 0.105829 33.6027 -17.915 64.8123 1.85757 -42.6156 0.724583 26.8842 0.1521 -3.39952 0.0927318 4.17504 2.3601 -0.0 0.0 -0.0 6.88686 21.7254 -12.3863 -22.3773 16.8652 -69.7389 0.503577 14.0072 -0.0618639 17.774 -0.280194 2.24409 3.2617 14.4265 -15.9591 0.0 0.0 0.0 -19.1736 19.3092 15.9133 -1.31954 0.052079 0.1958 40.1176 17.3058 -4.98242 -37.9811 0.0 0.0 -0.0 0.0 -0.0 27.8002 9.25294 -1.16827 -10.7146 -0.290743 -1.61625 32.5228 -1.71064 4.16253 -8.52699 0.0 0.0 0.0 0.0 0.0 
1142.24 723.265 -702.256 167.203 -66.4395 162.672 -1.65637 0.330994 2.39906 -1.65318 0.177711 2.41525 -1.64264 -0.402688 2.38808 -1.6506 -0.0205973 2.42168 -12.0248 6.44345 4.20915 -12.0242 9.51459 5.85429 -0.0 0.0 -0.0 -0.35421 16.2885 1.3572 34.271 -17.5967 65.3178 1.95282 -44.045 0.789947 25.6185 0.180867 -3.24041 0.175598 2.13724 2.06379 -0.0 0.0 -0.0 7.42335 22.22 -13.518 -22.2248 17.0359 -70.266 0.395021 11.072 -0.038287 18.1382 -0.278608 2.29058 2.7149 11.3357 -13.6102 0.0 0.0 0.0 -19.7316 18.2871 15.4234 0.0680414 -0.00280769 -0.0100641 39.9939 16.5214 -4.95693 -39.6012 0.0 0.0 -0.0 0.0 -0.0 28.7951 8.71173 -1.60628 -8.24305 -0.250606 -1.23915 34.8691 -2.05113 4.394 -7.03317 0.0 0.0 0.0 0.0 0.0 
1155.11 716.784 -700.739 167.239 -66.1729 162.577 -1.76735 0.204882 2.30951 -1.76439 0.0575474 2.31786 -1.75934 -0.500883 2.26385 -1.76647 -0.137164 2.31452 -10.7975 7.1668 1.86727 -10.8502 12.2984 3.69236 -0.0 0.0 -0.0 0.108349 16.0399 2.05467 33.9257 -17.674 63.9146 1.99408 -44.6436 0.818788 24.8745 0.196134 -3.1466 -0.0492972 2.78749 0.843722 -0.0 0.0 -0.0 7.57724 22.9109 -13.7942 -22.6304 17.3502 -69.7616 0.323845 9.11412 -0.0258117 18.3718 -0.277436 2.32039 2.32212 9.25265 -11.8278 0.0 0.0 0.0 -19.6684 14.3773 14.7737 0.96271 -0.0408383 -0.142086 39.8482 13.0239 -4.89235 -39.7632 0.0 0.0 -0.0 0.0 -0.0 29.4539 8.24239 -2.11506 -5.51775 -0.187534 -0.82572 35.5179 0.921458 4.47642 -6.61617 0.0 0.0 0.0 0.0 0.0 
1171.35 715.508 -698.085 167.713 -66.8651 163.159 -1.803 0.195243 2.33175 -1.79998 0.0465139 2.33944 -1.7953 -0.518223 2.28183 -1.80254 -0.151451 2.335 -10.4587 6.35109 2.28909 -10.4855 10.4494 3.85314 -0.0 0.0 -0.0 0.24744 16.9113 2.36733 34.1195 -16.9868 64.6639 2.08662 -45.9425 0.884564 24.1419 0.209976 -3.05403 0.289874 -0.271892 1.82276 -0.0 0.0 -0.0 7.83621 23.5672 -14.3035 -22.1501 17.3283 -70.1681 0.259032 7.31222 -0.0165516 18.7597 -0.275221 2.3699 1.97622 7.05313 -10.4026 0.0 0.0 0.0 -20.5661 16.1028 14.8009 1.59931 -0.0691545 -0.235663 39.8522 13.3968 -4.89727 -40.1211 0.0 0.0 -0.0 0.0 -0.0 29.8917 8.18061 -2.91765 -4.81849 -0.168185 -0.720152 37.2495 -2.04643 4.61903 -5.25185 0.0 0.0 0.0 0.0 0.0 
1190.26 712.825 -694.632 167.739 -66.7828 163.462 -2.01464 0.251176 2.28181 -2.01175 0.105508 2.29316 -2.00461 -0.457991 2.24946 -2.01166 -0.0970807 2.29353 -8.78575 6.88792 1.37184 -8.80911 11.9515 2.93762 -0.0 0.0 -0.0 1.24395 17.9313 3.99564 34.037 -17.1892 64.6133 2.18664 -47.2808 0.957249 23.2939 0.224517 -2.94669 0.41504 -0.851089 2.41907 -0.0 0.0 -0.0 7.79499 23.033 -14.2619 -22.2522 18.2605 -69.7153 0.23458 6.62843 -0.0135842 19.1176 -0.27288 2.41555 1.78005 5.60325 -9.67429 0.0 0.0 0.0 -20.8392 11.2144 13.9261 1.81162 -0.0788295 -0.266804 38.1542 12.1813 -4.72925 -39.7162 0.0 0.0 -0.0 0.0 -0.0 29.9196 7.1533 -3.60213 -6.02311 -0.200715 -0.902154 38.589 -0.386084 4.74976 -4.19281 0.0 0.0 0.0 0.0 0.0 
1212.49 705.145 -686.301 168.96 -67.6839 164.958 -1.90661 0.192901 2.23874 -1.90383 0.0500897 2.24648 -1.89922 -0.49632 2.19156 -1.90589 -0.144066 2.24241 -6.69147 7.08587 -0.481866 -6.68176 13.495 0.922118 -0.0 0.0 -0.0 1.45391 17.4205 4.27806 32.9635 -16.4956 63.9105 2.22057 -47.72 0.982264 22.1671 0.241379 -2.80374 0.428414 -1.81995 2.10474 -0.0 0.0 -0.0 7.79935 21.726 -14.3868 -22.0415 18.1389 -70.5721 0.211794 5.98952 -0.0110803 18.7171 -0.27548 2.36446 1.37584 2.30912 -8.28964 0.0 0.0 0.0 -21.3146 10.6749 13.3428 1.82218 -0.079314 -0.268351 40.2222 11.903 -4.91295 -38.8351 0.0 0.0 -0.0 0.0 -0.0 29.917 6.54171 -4.28955 -5.73141 -0.19319 -0.858022 39.2444 1.1666 4.81999 -1.59955 0.0 0.0 0.0 0.0 0.0 
1230.98 695.554 -681.374 167.954 -66.6575 164.344 -2.00035 0.205226 2.19595 -1.99767 0.0651107 2.20455 -1.99253 -0.475069 2.15377 -1.99898 -0.129046 2.20174 -4.12755 7.02746 -1.61225 -4.04959 14.0876 -0.533562 -0.0 0.0 -0.0 1.67638 17.5759 4.63147 32.2602 -16.1571 63.8232 2.28759 -48.5663 1.03218 21.4695 0.250407 -2.71509 0.499716 -2.08659 2.47212 -0.0 0.0 -0.0 8.06351 22.5711 -14.8949 -21.9099 18.455 -70.4148 0.198 5.60198 -0.00968722 18.3069 -0.277773 2.31212 1.14189 -0.265211 -7.75704 0.0 0.0 0.0 -22.0175 8.92515 13.2996 -0.470309 0.0190795 0.069652 41.8225 11.4043 -5.04572 -37.8149 0.0 0.0 -0.0 0.0 -0.0 30.0759 6.28615 -5.32392 -9.03407 -0.265222 -1.35965 39.5699 3.01646 4.86777 0.739242 -0.0 -0.0 0.0 0.0 0.0 
